<mxfile host="Electron" agent="Mozilla/5.0 (Windows NT 10.0; Win64; x64) AppleWebKit/537.36 (KHTML, like Gecko) draw.io/27.0.9 Chrome/134.0.6998.205 Electron/35.4.0 Safari/537.36" version="27.0.9">
  <diagram name="Page-1" id="1hs5s9o86z9CkmKRlvlU">
    <mxGraphModel dx="814" dy="700" grid="0" gridSize="10" guides="1" tooltips="1" connect="1" arrows="1" fold="1" page="1" pageScale="1" pageWidth="827" pageHeight="1169" math="0" shadow="0">
      <root>
        <mxCell id="0" />
        <mxCell id="1" parent="0" />
        <mxCell id="Dv9imvHfTyk6gD-PRM9J-69" value="" style="rounded=0;whiteSpace=wrap;html=1;movable=0;resizable=0;rotatable=0;deletable=0;editable=0;locked=1;connectable=0;" vertex="1" parent="1">
          <mxGeometry x="177" y="19" width="515" height="1131" as="geometry" />
        </mxCell>
        <mxCell id="m7XsVHhVL0BLHQTgYPTq-2" value="responsable" style="shape=umlActor;verticalLabelPosition=bottom;verticalAlign=top;html=1;" parent="1" vertex="1">
          <mxGeometry x="58" y="169" width="27" height="60" as="geometry" />
        </mxCell>
        <mxCell id="m7XsVHhVL0BLHQTgYPTq-19" value="" style="shape=ellipse;container=1;horizontal=1;horizontalStack=0;resizeParent=1;resizeParentMax=0;resizeLast=0;html=1;dashed=0;collapsible=0;" parent="1" vertex="1">
          <mxGeometry x="457" y="217" width="120" height="60" as="geometry" />
        </mxCell>
        <mxCell id="m7XsVHhVL0BLHQTgYPTq-20" value="créer event" style="html=1;strokeColor=none;fillColor=none;align=center;verticalAlign=middle;rotatable=0;whiteSpace=wrap;" parent="m7XsVHhVL0BLHQTgYPTq-19" vertex="1">
          <mxGeometry x="2" y="29.00142857142857" width="120" height="15" as="geometry" />
        </mxCell>
        <mxCell id="m7XsVHhVL0BLHQTgYPTq-24" value="" style="shape=ellipse;container=1;horizontal=1;horizontalStack=0;resizeParent=1;resizeParentMax=0;resizeLast=0;html=1;dashed=0;collapsible=0;" parent="1" vertex="1">
          <mxGeometry x="557" y="340" width="116" height="38" as="geometry" />
        </mxCell>
        <mxCell id="m7XsVHhVL0BLHQTgYPTq-25" value="changer date event" style="html=1;strokeColor=none;fillColor=none;align=center;verticalAlign=middle;rotatable=0;whiteSpace=wrap;" parent="m7XsVHhVL0BLHQTgYPTq-24" vertex="1">
          <mxGeometry x="2" y="14.25" width="116" height="9.5" as="geometry" />
        </mxCell>
        <mxCell id="m7XsVHhVL0BLHQTgYPTq-45" value="" style="endArrow=none;html=1;rounded=0;endFill=0;entryX=0;entryY=0.5;entryDx=0;entryDy=0;" parent="1" target="Dv9imvHfTyk6gD-PRM9J-30" edge="1">
          <mxGeometry width="50" height="50" relative="1" as="geometry">
            <mxPoint x="88" y="196" as="sourcePoint" />
            <mxPoint x="287" y="177" as="targetPoint" />
          </mxGeometry>
        </mxCell>
        <mxCell id="m7XsVHhVL0BLHQTgYPTq-81" value="" style="shape=ellipse;container=1;horizontal=1;horizontalStack=0;resizeParent=1;resizeParentMax=0;resizeLast=0;html=1;dashed=0;collapsible=0;" parent="1" vertex="1">
          <mxGeometry x="559" y="475" width="95" height="44.5" as="geometry" />
        </mxCell>
        <mxCell id="m7XsVHhVL0BLHQTgYPTq-82" value="créer groupe" style="html=1;strokeColor=none;fillColor=none;align=center;verticalAlign=middle;rotatable=0;whiteSpace=wrap;" parent="m7XsVHhVL0BLHQTgYPTq-81" vertex="1">
          <mxGeometry x="1.6379310344827587" y="16.6875" width="95" height="11.125" as="geometry" />
        </mxCell>
        <mxCell id="m7XsVHhVL0BLHQTgYPTq-84" value="" style="shape=ellipse;container=1;horizontal=1;horizontalStack=0;resizeParent=1;resizeParentMax=0;resizeLast=0;html=1;dashed=0;collapsible=0;" parent="1" vertex="1">
          <mxGeometry x="559" y="277" width="116" height="53" as="geometry" />
        </mxCell>
        <mxCell id="m7XsVHhVL0BLHQTgYPTq-85" value="assigner groupe à un event" style="html=1;strokeColor=none;fillColor=none;align=center;verticalAlign=middle;rotatable=0;whiteSpace=wrap;" parent="m7XsVHhVL0BLHQTgYPTq-84" vertex="1">
          <mxGeometry x="2" y="19.875" width="116" height="13.25" as="geometry" />
        </mxCell>
        <mxCell id="m7XsVHhVL0BLHQTgYPTq-86" value="" style="endArrow=none;html=1;rounded=0;endFill=0;entryX=0;entryY=0.5;entryDx=0;entryDy=0;" parent="1" target="Dv9imvHfTyk6gD-PRM9J-3" edge="1">
          <mxGeometry width="50" height="50" relative="1" as="geometry">
            <mxPoint x="147" y="261" as="sourcePoint" />
            <mxPoint x="487" y="735" as="targetPoint" />
            <Array as="points" />
          </mxGeometry>
        </mxCell>
        <mxCell id="m7XsVHhVL0BLHQTgYPTq-110" value="" style="shape=ellipse;container=1;horizontal=1;horizontalStack=0;resizeParent=1;resizeParentMax=0;resizeLast=0;html=1;dashed=0;collapsible=0;" parent="1" vertex="1">
          <mxGeometry x="554" y="139" width="120" height="60" as="geometry" />
        </mxCell>
        <mxCell id="m7XsVHhVL0BLHQTgYPTq-111" value="dupliquer event (groupe y compris)" style="html=1;strokeColor=none;fillColor=none;align=center;verticalAlign=middle;rotatable=0;whiteSpace=wrap;" parent="m7XsVHhVL0BLHQTgYPTq-110" vertex="1">
          <mxGeometry x="2" y="29.00142857142857" width="120" height="15" as="geometry" />
        </mxCell>
        <mxCell id="m7XsVHhVL0BLHQTgYPTq-116" value="" style="shape=ellipse;container=1;horizontal=1;horizontalStack=0;resizeParent=1;resizeParentMax=0;resizeLast=0;html=1;dashed=0;collapsible=0;" parent="1" vertex="1">
          <mxGeometry x="325" y="786" width="116" height="58" as="geometry" />
        </mxCell>
        <mxCell id="m7XsVHhVL0BLHQTgYPTq-117" value="chercher membre" style="html=1;strokeColor=none;fillColor=none;align=center;verticalAlign=middle;rotatable=0;whiteSpace=wrap;" parent="m7XsVHhVL0BLHQTgYPTq-116" vertex="1">
          <mxGeometry x="2" y="21.75" width="116" height="14.5" as="geometry" />
        </mxCell>
        <mxCell id="m7XsVHhVL0BLHQTgYPTq-119" value="" style="shape=ellipse;container=1;horizontal=1;horizontalStack=0;resizeParent=1;resizeParentMax=0;resizeLast=0;html=1;dashed=0;collapsible=0;" parent="1" vertex="1">
          <mxGeometry x="558" y="733" width="116" height="45" as="geometry" />
        </mxCell>
        <mxCell id="m7XsVHhVL0BLHQTgYPTq-120" value="afficher membre sans groupe(filtre)" style="html=1;strokeColor=none;fillColor=none;align=center;verticalAlign=middle;rotatable=0;whiteSpace=wrap;" parent="m7XsVHhVL0BLHQTgYPTq-119" vertex="1">
          <mxGeometry x="2" y="16.875" width="116" height="11.25" as="geometry" />
        </mxCell>
        <mxCell id="m7XsVHhVL0BLHQTgYPTq-122" value="" style="shape=ellipse;container=1;horizontal=1;horizontalStack=0;resizeParent=1;resizeParentMax=0;resizeLast=0;html=1;dashed=0;collapsible=0;" parent="1" vertex="1">
          <mxGeometry x="206.99999999999974" y="1045.44" width="116" height="60" as="geometry" />
        </mxCell>
        <mxCell id="m7XsVHhVL0BLHQTgYPTq-123" value="gérer un membre" style="html=1;strokeColor=none;fillColor=none;align=center;verticalAlign=middle;rotatable=0;whiteSpace=wrap;" parent="m7XsVHhVL0BLHQTgYPTq-122" vertex="1">
          <mxGeometry x="2" y="22.5" width="116" height="15" as="geometry" />
        </mxCell>
        <mxCell id="m7XsVHhVL0BLHQTgYPTq-124" value="" style="endArrow=none;html=1;rounded=0;entryX=0;entryY=0.5;entryDx=0;entryDy=0;endFill=0;" parent="1" target="m7XsVHhVL0BLHQTgYPTq-122" edge="1">
          <mxGeometry width="50" height="50" relative="1" as="geometry">
            <mxPoint x="107" y="304" as="sourcePoint" />
            <mxPoint x="592.7099999999998" y="928" as="targetPoint" />
            <Array as="points">
              <mxPoint x="137" y="509" />
            </Array>
          </mxGeometry>
        </mxCell>
        <mxCell id="m7XsVHhVL0BLHQTgYPTq-125" value="" style="shape=ellipse;container=1;horizontal=1;horizontalStack=0;resizeParent=1;resizeParentMax=0;resizeLast=0;html=1;dashed=0;collapsible=0;" parent="1" vertex="1">
          <mxGeometry x="544" y="798" width="132.5" height="64.25" as="geometry" />
        </mxCell>
        <mxCell id="m7XsVHhVL0BLHQTgYPTq-126" value="afficher membre non assigné pour la tranche horaire (filtre)&amp;nbsp;" style="html=1;strokeColor=none;fillColor=none;align=center;verticalAlign=middle;rotatable=0;whiteSpace=wrap;" parent="m7XsVHhVL0BLHQTgYPTq-125" vertex="1">
          <mxGeometry x="2.2844827586206895" y="24.09375" width="132.5" height="16.0625" as="geometry" />
        </mxCell>
        <mxCell id="m7XsVHhVL0BLHQTgYPTq-128" value="" style="shape=ellipse;container=1;horizontal=1;horizontalStack=0;resizeParent=1;resizeParentMax=0;resizeLast=0;html=1;dashed=0;collapsible=0;" parent="1" vertex="1">
          <mxGeometry x="498.5" y="868.48" width="133" height="64.5" as="geometry" />
        </mxCell>
        <mxCell id="m7XsVHhVL0BLHQTgYPTq-129" value="afficher membre sur-assigné pour la tranche horaire(filtre)&amp;nbsp;" style="html=1;strokeColor=none;fillColor=none;align=center;verticalAlign=middle;rotatable=0;whiteSpace=wrap;" parent="m7XsVHhVL0BLHQTgYPTq-128" vertex="1">
          <mxGeometry x="2.293103448275862" y="24.1875" width="133" height="16.125" as="geometry" />
        </mxCell>
        <mxCell id="m7XsVHhVL0BLHQTgYPTq-131" value="(= appartenant à +d&#39; un&amp;nbsp; event pour la meme période de temps concerné)" style="rounded=0;whiteSpace=wrap;html=1;dashed=1;dashPattern=8 8;" parent="1" vertex="1">
          <mxGeometry x="701" y="844" width="120" height="60" as="geometry" />
        </mxCell>
        <mxCell id="m7XsVHhVL0BLHQTgYPTq-132" value="" style="endArrow=none;dashed=1;html=1;rounded=0;exitX=0.984;exitY=0.305;exitDx=0;exitDy=0;exitPerimeter=0;" parent="1" source="m7XsVHhVL0BLHQTgYPTq-128" target="m7XsVHhVL0BLHQTgYPTq-131" edge="1">
          <mxGeometry width="50" height="50" relative="1" as="geometry">
            <mxPoint x="615.54" y="876.9815000000001" as="sourcePoint" />
            <mxPoint x="655.5" y="831" as="targetPoint" />
          </mxGeometry>
        </mxCell>
        <mxCell id="m7XsVHhVL0BLHQTgYPTq-137" value="" style="shape=ellipse;container=1;horizontal=1;horizontalStack=0;resizeParent=1;resizeParentMax=0;resizeLast=0;html=1;dashed=0;collapsible=0;" parent="1" vertex="1">
          <mxGeometry x="518" y="1020" width="129" height="57" as="geometry" />
        </mxCell>
        <mxCell id="m7XsVHhVL0BLHQTgYPTq-138" value="désasigner /assigner tranche horaire&amp;nbsp;&amp;nbsp;" style="html=1;strokeColor=none;fillColor=none;align=center;verticalAlign=middle;rotatable=0;whiteSpace=wrap;" parent="m7XsVHhVL0BLHQTgYPTq-137" vertex="1">
          <mxGeometry x="2.1864406779661016" y="21.137500000000003" width="126.8135593220339" height="14.725000000000001" as="geometry" />
        </mxCell>
        <mxCell id="337QsJA46lGJaJR8lwZi-2" value="&quot;gestion des rendez-vous -planification des event&quot;" style="text;html=1;align=center;verticalAlign=middle;whiteSpace=wrap;rounded=0;fontSize=16;fontStyle=1" parent="1" vertex="1">
          <mxGeometry x="220" y="40" width="253" height="30" as="geometry" />
        </mxCell>
        <mxCell id="Dv9imvHfTyk6gD-PRM9J-1" value="" style="endArrow=classic;html=1;rounded=0;dashed=1;dashPattern=8 8;exitX=1;exitY=0.5;exitDx=0;exitDy=0;entryX=0.684;entryY=1.023;entryDx=0;entryDy=0;entryPerimeter=0;" edge="1" parent="1" source="m7XsVHhVL0BLHQTgYPTq-19" target="m7XsVHhVL0BLHQTgYPTq-110">
          <mxGeometry width="50" height="50" relative="1" as="geometry">
            <mxPoint x="463" y="397" as="sourcePoint" />
            <mxPoint x="554" y="182" as="targetPoint" />
            <Array as="points">
              <mxPoint x="661" y="244" />
            </Array>
          </mxGeometry>
        </mxCell>
        <mxCell id="Dv9imvHfTyk6gD-PRM9J-2" value="&quot;extend&quot;" style="edgeLabel;html=1;align=center;verticalAlign=middle;resizable=0;points=[];" vertex="1" connectable="0" parent="Dv9imvHfTyk6gD-PRM9J-1">
          <mxGeometry x="-0.0891" relative="1" as="geometry">
            <mxPoint x="-12" y="-2" as="offset" />
          </mxGeometry>
        </mxCell>
        <mxCell id="Dv9imvHfTyk6gD-PRM9J-3" value="" style="shape=ellipse;container=1;horizontal=1;horizontalStack=0;resizeParent=1;resizeParentMax=0;resizeLast=0;html=1;dashed=0;collapsible=0;" vertex="1" parent="1">
          <mxGeometry x="199.99999999999997" y="301" width="120" height="60" as="geometry" />
        </mxCell>
        <mxCell id="Dv9imvHfTyk6gD-PRM9J-4" value="gérer event" style="html=1;strokeColor=none;fillColor=none;align=center;verticalAlign=middle;rotatable=0;whiteSpace=wrap;" vertex="1" parent="Dv9imvHfTyk6gD-PRM9J-3">
          <mxGeometry x="6" y="22.50142857142857" width="120" height="15" as="geometry" />
        </mxCell>
        <mxCell id="Dv9imvHfTyk6gD-PRM9J-7" value="" style="endArrow=classic;html=1;rounded=0;dashed=1;dashPattern=8 8;exitX=0.924;exitY=0.176;exitDx=0;exitDy=0;exitPerimeter=0;entryX=0;entryY=0.5;entryDx=0;entryDy=0;" edge="1" parent="1" source="Dv9imvHfTyk6gD-PRM9J-3" target="m7XsVHhVL0BLHQTgYPTq-85">
          <mxGeometry width="50" height="50" relative="1" as="geometry">
            <mxPoint x="603" y="388" as="sourcePoint" />
            <mxPoint x="543" y="343" as="targetPoint" />
          </mxGeometry>
        </mxCell>
        <mxCell id="Dv9imvHfTyk6gD-PRM9J-8" value="&quot;extend&quot;" style="edgeLabel;html=1;align=center;verticalAlign=middle;resizable=0;points=[];" vertex="1" connectable="0" parent="Dv9imvHfTyk6gD-PRM9J-7">
          <mxGeometry x="-0.0891" relative="1" as="geometry">
            <mxPoint as="offset" />
          </mxGeometry>
        </mxCell>
        <mxCell id="Dv9imvHfTyk6gD-PRM9J-9" value="" style="endArrow=classic;html=1;rounded=0;dashed=1;dashPattern=8 8;exitX=1;exitY=0.5;exitDx=0;exitDy=0;entryX=0;entryY=0.25;entryDx=0;entryDy=0;" edge="1" parent="1" source="Dv9imvHfTyk6gD-PRM9J-4" target="m7XsVHhVL0BLHQTgYPTq-25">
          <mxGeometry width="50" height="50" relative="1" as="geometry">
            <mxPoint x="589" y="419" as="sourcePoint" />
            <mxPoint x="540" y="401" as="targetPoint" />
          </mxGeometry>
        </mxCell>
        <mxCell id="Dv9imvHfTyk6gD-PRM9J-10" value="&quot;extend&quot;" style="edgeLabel;html=1;align=center;verticalAlign=middle;resizable=0;points=[];" vertex="1" connectable="0" parent="Dv9imvHfTyk6gD-PRM9J-9">
          <mxGeometry x="-0.0891" relative="1" as="geometry">
            <mxPoint as="offset" />
          </mxGeometry>
        </mxCell>
        <mxCell id="Dv9imvHfTyk6gD-PRM9J-11" value="" style="endArrow=classic;html=1;rounded=0;dashed=1;dashPattern=8 8;exitX=0.863;exitY=0.131;exitDx=0;exitDy=0;exitPerimeter=0;" edge="1" parent="1" source="m7XsVHhVL0BLHQTgYPTq-116">
          <mxGeometry width="50" height="50" relative="1" as="geometry">
            <mxPoint x="521" y="689.5" as="sourcePoint" />
            <mxPoint x="545" y="767" as="targetPoint" />
          </mxGeometry>
        </mxCell>
        <mxCell id="Dv9imvHfTyk6gD-PRM9J-12" value="&quot;extend&quot;" style="edgeLabel;html=1;align=center;verticalAlign=middle;resizable=0;points=[];" vertex="1" connectable="0" parent="Dv9imvHfTyk6gD-PRM9J-11">
          <mxGeometry x="-0.0891" relative="1" as="geometry">
            <mxPoint as="offset" />
          </mxGeometry>
        </mxCell>
        <mxCell id="Dv9imvHfTyk6gD-PRM9J-13" value="" style="endArrow=classic;html=1;rounded=0;dashed=1;dashPattern=8 8;exitX=0.893;exitY=0.817;exitDx=0;exitDy=0;exitPerimeter=0;" edge="1" parent="1" source="m7XsVHhVL0BLHQTgYPTq-116">
          <mxGeometry width="50" height="50" relative="1" as="geometry">
            <mxPoint x="570" y="784.5" as="sourcePoint" />
            <mxPoint x="537" y="836" as="targetPoint" />
          </mxGeometry>
        </mxCell>
        <mxCell id="Dv9imvHfTyk6gD-PRM9J-14" value="&quot;extend&quot;" style="edgeLabel;html=1;align=center;verticalAlign=middle;resizable=0;points=[];" vertex="1" connectable="0" parent="Dv9imvHfTyk6gD-PRM9J-13">
          <mxGeometry x="-0.0891" relative="1" as="geometry">
            <mxPoint as="offset" />
          </mxGeometry>
        </mxCell>
        <mxCell id="Dv9imvHfTyk6gD-PRM9J-15" value="" style="endArrow=classic;html=1;rounded=0;dashed=1;dashPattern=8 8;exitX=0.647;exitY=1.045;exitDx=0;exitDy=0;exitPerimeter=0;" edge="1" parent="1" source="m7XsVHhVL0BLHQTgYPTq-116">
          <mxGeometry width="50" height="50" relative="1" as="geometry">
            <mxPoint x="370" y="815.5" as="sourcePoint" />
            <mxPoint x="492" y="897" as="targetPoint" />
          </mxGeometry>
        </mxCell>
        <mxCell id="Dv9imvHfTyk6gD-PRM9J-16" value="&quot;extend&quot;" style="edgeLabel;html=1;align=center;verticalAlign=middle;resizable=0;points=[];" vertex="1" connectable="0" parent="Dv9imvHfTyk6gD-PRM9J-15">
          <mxGeometry x="-0.0891" relative="1" as="geometry">
            <mxPoint as="offset" />
          </mxGeometry>
        </mxCell>
        <mxCell id="Dv9imvHfTyk6gD-PRM9J-17" value="" style="endArrow=classic;html=1;rounded=0;dashed=1;dashPattern=8 8;exitX=0.911;exitY=0.211;exitDx=0;exitDy=0;exitPerimeter=0;entryX=0.048;entryY=0.364;entryDx=0;entryDy=0;entryPerimeter=0;" edge="1" parent="1" source="m7XsVHhVL0BLHQTgYPTq-122" target="Dv9imvHfTyk6gD-PRM9J-19">
          <mxGeometry width="50" height="50" relative="1" as="geometry">
            <mxPoint x="549.71" y="1008.5" as="sourcePoint" />
            <mxPoint x="542" y="977" as="targetPoint" />
          </mxGeometry>
        </mxCell>
        <mxCell id="Dv9imvHfTyk6gD-PRM9J-18" value="&quot;extend&quot;" style="edgeLabel;html=1;align=center;verticalAlign=middle;resizable=0;points=[];" vertex="1" connectable="0" parent="Dv9imvHfTyk6gD-PRM9J-17">
          <mxGeometry x="-0.0891" relative="1" as="geometry">
            <mxPoint as="offset" />
          </mxGeometry>
        </mxCell>
        <mxCell id="Dv9imvHfTyk6gD-PRM9J-19" value="" style="shape=ellipse;container=1;horizontal=1;horizontalStack=0;resizeParent=1;resizeParentMax=0;resizeLast=0;html=1;dashed=0;collapsible=0;" vertex="1" parent="1">
          <mxGeometry x="546.62" y="974" width="116" height="44" as="geometry" />
        </mxCell>
        <mxCell id="Dv9imvHfTyk6gD-PRM9J-20" value="modifier type d&#39;un membre" style="html=1;strokeColor=none;fillColor=none;align=center;verticalAlign=middle;rotatable=0;whiteSpace=wrap;" vertex="1" parent="Dv9imvHfTyk6gD-PRM9J-19">
          <mxGeometry x="0.3799999999999999" y="21" width="116" height="11" as="geometry" />
        </mxCell>
        <mxCell id="Dv9imvHfTyk6gD-PRM9J-21" value="" style="endArrow=classic;html=1;rounded=0;dashed=1;dashPattern=8 8;exitX=1;exitY=0.668;exitDx=0;exitDy=0;exitPerimeter=0;" edge="1" parent="1" source="m7XsVHhVL0BLHQTgYPTq-122">
          <mxGeometry width="50" height="50" relative="1" as="geometry">
            <mxPoint x="450" y="1019.5" as="sourcePoint" />
            <mxPoint x="511" y="1042" as="targetPoint" />
          </mxGeometry>
        </mxCell>
        <mxCell id="Dv9imvHfTyk6gD-PRM9J-22" value="&quot;extend&quot;" style="edgeLabel;html=1;align=center;verticalAlign=middle;resizable=0;points=[];" vertex="1" connectable="0" parent="Dv9imvHfTyk6gD-PRM9J-21">
          <mxGeometry x="-0.0891" relative="1" as="geometry">
            <mxPoint as="offset" />
          </mxGeometry>
        </mxCell>
        <mxCell id="Dv9imvHfTyk6gD-PRM9J-24" value="" style="shape=ellipse;container=1;horizontal=1;horizontalStack=0;resizeParent=1;resizeParentMax=0;resizeLast=0;html=1;dashed=0;collapsible=0;" vertex="1" parent="1">
          <mxGeometry x="208.99999999999997" y="525" width="116" height="60" as="geometry" />
        </mxCell>
        <mxCell id="Dv9imvHfTyk6gD-PRM9J-25" value="gérer groupe" style="html=1;strokeColor=none;fillColor=none;align=center;verticalAlign=middle;rotatable=0;whiteSpace=wrap;" vertex="1" parent="Dv9imvHfTyk6gD-PRM9J-24">
          <mxGeometry x="2" y="22.5" width="116" height="15" as="geometry" />
        </mxCell>
        <mxCell id="Dv9imvHfTyk6gD-PRM9J-29" value="" style="shape=ellipse;container=1;horizontal=1;horizontalStack=0;resizeParent=1;resizeParentMax=0;resizeLast=0;html=1;dashed=0;collapsible=0;" vertex="1" parent="1">
          <mxGeometry x="196" y="109" width="120" height="50" as="geometry" />
        </mxCell>
        <mxCell id="Dv9imvHfTyk6gD-PRM9J-30" value="authentifier" style="html=1;strokeColor=none;fillColor=none;align=center;verticalAlign=middle;rotatable=0;whiteSpace=wrap;" vertex="1" parent="Dv9imvHfTyk6gD-PRM9J-29">
          <mxGeometry y="18.75" width="120" height="12.5" as="geometry" />
        </mxCell>
        <mxCell id="Dv9imvHfTyk6gD-PRM9J-31" value="" style="endArrow=none;html=1;rounded=0;entryX=0.101;entryY=0.179;entryDx=0;entryDy=0;entryPerimeter=0;" edge="1" parent="1" target="Dv9imvHfTyk6gD-PRM9J-24">
          <mxGeometry width="50" height="50" relative="1" as="geometry">
            <mxPoint x="133" y="278" as="sourcePoint" />
            <mxPoint x="514" y="518" as="targetPoint" />
            <Array as="points">
              <mxPoint x="208" y="488" />
            </Array>
          </mxGeometry>
        </mxCell>
        <mxCell id="Dv9imvHfTyk6gD-PRM9J-33" value="" style="shape=ellipse;container=1;horizontal=1;horizontalStack=0;resizeParent=1;resizeParentMax=0;resizeLast=0;html=1;dashed=0;collapsible=0;" vertex="1" parent="1">
          <mxGeometry x="548" y="530" width="120" height="40" as="geometry" />
        </mxCell>
        <mxCell id="Dv9imvHfTyk6gD-PRM9J-34" value="effacer groupe" style="html=1;strokeColor=none;fillColor=none;align=center;verticalAlign=middle;rotatable=0;whiteSpace=wrap;" vertex="1" parent="Dv9imvHfTyk6gD-PRM9J-33">
          <mxGeometry x="-3" y="14.4" width="120" height="10" as="geometry" />
        </mxCell>
        <mxCell id="Dv9imvHfTyk6gD-PRM9J-35" value="" style="shape=ellipse;container=1;horizontal=1;horizontalStack=0;resizeParent=1;resizeParentMax=0;resizeLast=0;html=1;dashed=0;collapsible=0;" vertex="1" parent="1">
          <mxGeometry x="555" y="396" width="120" height="38" as="geometry" />
        </mxCell>
        <mxCell id="Dv9imvHfTyk6gD-PRM9J-36" value="effacer event" style="html=1;strokeColor=none;fillColor=none;align=center;verticalAlign=middle;rotatable=0;whiteSpace=wrap;" vertex="1" parent="Dv9imvHfTyk6gD-PRM9J-35">
          <mxGeometry y="14.25" width="120" height="9.5" as="geometry" />
        </mxCell>
        <mxCell id="Dv9imvHfTyk6gD-PRM9J-37" value="" style="endArrow=classic;html=1;rounded=0;dashed=1;dashPattern=8 8;entryX=0;entryY=0.25;entryDx=0;entryDy=0;" edge="1" parent="1" source="Dv9imvHfTyk6gD-PRM9J-3" target="Dv9imvHfTyk6gD-PRM9J-36">
          <mxGeometry width="50" height="50" relative="1" as="geometry">
            <mxPoint x="528" y="461" as="sourcePoint" />
            <mxPoint x="537" y="457" as="targetPoint" />
          </mxGeometry>
        </mxCell>
        <mxCell id="Dv9imvHfTyk6gD-PRM9J-38" value="&quot;extend&quot;" style="edgeLabel;html=1;align=center;verticalAlign=middle;resizable=0;points=[];" vertex="1" connectable="0" parent="Dv9imvHfTyk6gD-PRM9J-37">
          <mxGeometry x="-0.0891" relative="1" as="geometry">
            <mxPoint as="offset" />
          </mxGeometry>
        </mxCell>
        <mxCell id="Dv9imvHfTyk6gD-PRM9J-41" value="" style="endArrow=classic;html=1;rounded=0;dashed=1;dashPattern=8 8;exitX=1;exitY=0;exitDx=0;exitDy=0;entryX=0;entryY=0.5;entryDx=0;entryDy=0;" edge="1" parent="1" source="Dv9imvHfTyk6gD-PRM9J-25" target="Dv9imvHfTyk6gD-PRM9J-33">
          <mxGeometry width="50" height="50" relative="1" as="geometry">
            <mxPoint x="685" y="618" as="sourcePoint" />
            <mxPoint x="549" y="547" as="targetPoint" />
          </mxGeometry>
        </mxCell>
        <mxCell id="Dv9imvHfTyk6gD-PRM9J-42" value="&quot;extend&quot;" style="edgeLabel;html=1;align=center;verticalAlign=middle;resizable=0;points=[];" vertex="1" connectable="0" parent="Dv9imvHfTyk6gD-PRM9J-41">
          <mxGeometry x="-0.0891" relative="1" as="geometry">
            <mxPoint as="offset" />
          </mxGeometry>
        </mxCell>
        <mxCell id="Dv9imvHfTyk6gD-PRM9J-43" value="" style="shape=ellipse;container=1;horizontal=1;horizontalStack=0;resizeParent=1;resizeParentMax=0;resizeLast=0;html=1;dashed=0;collapsible=0;" vertex="1" parent="1">
          <mxGeometry x="545" y="583.5" width="133" height="45.5" as="geometry" />
        </mxCell>
        <mxCell id="Dv9imvHfTyk6gD-PRM9J-44" value="désasigner /assigner un membre" style="html=1;strokeColor=none;fillColor=none;align=center;verticalAlign=middle;rotatable=0;whiteSpace=wrap;" vertex="1" parent="Dv9imvHfTyk6gD-PRM9J-43">
          <mxGeometry y="20.02" width="133" height="8.4175" as="geometry" />
        </mxCell>
        <mxCell id="Dv9imvHfTyk6gD-PRM9J-45" value="" style="endArrow=classic;html=1;rounded=0;dashed=1;dashPattern=8 8;exitX=0.938;exitY=0.769;exitDx=0;exitDy=0;exitPerimeter=0;entryX=0;entryY=0;entryDx=0;entryDy=0;" edge="1" parent="1" target="Dv9imvHfTyk6gD-PRM9J-44" source="Dv9imvHfTyk6gD-PRM9J-24">
          <mxGeometry width="50" height="50" relative="1" as="geometry">
            <mxPoint x="382" y="619" as="sourcePoint" />
            <mxPoint x="535" y="614" as="targetPoint" />
          </mxGeometry>
        </mxCell>
        <mxCell id="Dv9imvHfTyk6gD-PRM9J-46" value="&quot;extend&quot;" style="edgeLabel;html=1;align=center;verticalAlign=middle;resizable=0;points=[];" vertex="1" connectable="0" parent="Dv9imvHfTyk6gD-PRM9J-45">
          <mxGeometry x="-0.0891" relative="1" as="geometry">
            <mxPoint as="offset" />
          </mxGeometry>
        </mxCell>
        <mxCell id="Dv9imvHfTyk6gD-PRM9J-50" value="" style="shape=ellipse;container=1;horizontal=1;horizontalStack=0;resizeParent=1;resizeParentMax=0;resizeLast=0;html=1;dashed=0;collapsible=0;" vertex="1" parent="1">
          <mxGeometry x="540.24" y="1083" width="128.76" height="60.5" as="geometry" />
        </mxCell>
        <mxCell id="Dv9imvHfTyk6gD-PRM9J-51" value="désasigner /assigner un&amp;nbsp; groupe&amp;nbsp;" style="html=1;strokeColor=none;fillColor=none;align=center;verticalAlign=middle;rotatable=0;whiteSpace=wrap;" vertex="1" parent="Dv9imvHfTyk6gD-PRM9J-50">
          <mxGeometry x="2.182372881355932" y="22.43541666666667" width="126.57762711864407" height="15.629166666666668" as="geometry" />
        </mxCell>
        <mxCell id="Dv9imvHfTyk6gD-PRM9J-52" value="" style="endArrow=classic;html=1;rounded=0;dashed=1;dashPattern=8 8;exitX=0.833;exitY=0.858;exitDx=0;exitDy=0;exitPerimeter=0;entryX=0;entryY=0;entryDx=0;entryDy=0;" edge="1" parent="1" target="Dv9imvHfTyk6gD-PRM9J-51" source="m7XsVHhVL0BLHQTgYPTq-122">
          <mxGeometry width="50" height="50" relative="1" as="geometry">
            <mxPoint x="269" y="1013" as="sourcePoint" />
            <mxPoint x="491" y="1088" as="targetPoint" />
          </mxGeometry>
        </mxCell>
        <mxCell id="Dv9imvHfTyk6gD-PRM9J-53" value="&quot;extend&quot;" style="edgeLabel;html=1;align=center;verticalAlign=middle;resizable=0;points=[];" vertex="1" connectable="0" parent="Dv9imvHfTyk6gD-PRM9J-52">
          <mxGeometry x="-0.0891" relative="1" as="geometry">
            <mxPoint as="offset" />
          </mxGeometry>
        </mxCell>
        <mxCell id="Dv9imvHfTyk6gD-PRM9J-57" value="" style="shape=ellipse;container=1;horizontal=1;horizontalStack=0;resizeParent=1;resizeParentMax=0;resizeLast=0;html=1;dashed=0;collapsible=0;" vertex="1" parent="1">
          <mxGeometry x="204" y="676" width="116" height="60" as="geometry" />
        </mxCell>
        <mxCell id="Dv9imvHfTyk6gD-PRM9J-58" value="afficher tranche horaire" style="html=1;strokeColor=none;fillColor=none;align=center;verticalAlign=middle;rotatable=0;whiteSpace=wrap;" vertex="1" parent="Dv9imvHfTyk6gD-PRM9J-57">
          <mxGeometry x="2" y="22.5" width="116" height="15" as="geometry" />
        </mxCell>
        <mxCell id="Dv9imvHfTyk6gD-PRM9J-59" value="" style="endArrow=none;html=1;rounded=0;entryX=0.054;entryY=0.176;entryDx=0;entryDy=0;entryPerimeter=0;" edge="1" parent="1" target="Dv9imvHfTyk6gD-PRM9J-57">
          <mxGeometry width="50" height="50" relative="1" as="geometry">
            <mxPoint x="122" y="283" as="sourcePoint" />
            <mxPoint x="514" y="518" as="targetPoint" />
            <Array as="points">
              <mxPoint x="182" y="503" />
            </Array>
          </mxGeometry>
        </mxCell>
        <mxCell id="Dv9imvHfTyk6gD-PRM9J-63" value="" style="shape=ellipse;container=1;horizontal=1;horizontalStack=0;resizeParent=1;resizeParentMax=0;resizeLast=0;html=1;dashed=0;collapsible=0;" vertex="1" parent="1">
          <mxGeometry x="558" y="682" width="120" height="38" as="geometry" />
        </mxCell>
        <mxCell id="Dv9imvHfTyk6gD-PRM9J-64" value="choisir event à afficher(filtre)" style="html=1;strokeColor=none;fillColor=none;align=center;verticalAlign=middle;rotatable=0;whiteSpace=wrap;" vertex="1" parent="Dv9imvHfTyk6gD-PRM9J-63">
          <mxGeometry x="1" y="17.1" width="120" height="9.5" as="geometry" />
        </mxCell>
        <mxCell id="Dv9imvHfTyk6gD-PRM9J-65" value="" style="endArrow=classic;html=1;rounded=0;dashed=1;dashPattern=8 8;exitX=1;exitY=1;exitDx=0;exitDy=0;entryX=0;entryY=1;entryDx=0;entryDy=0;" edge="1" parent="1" target="Dv9imvHfTyk6gD-PRM9J-64" source="Dv9imvHfTyk6gD-PRM9J-58">
          <mxGeometry width="50" height="50" relative="1" as="geometry">
            <mxPoint x="434" y="679.5" as="sourcePoint" />
            <mxPoint x="542" y="676" as="targetPoint" />
          </mxGeometry>
        </mxCell>
        <mxCell id="Dv9imvHfTyk6gD-PRM9J-66" value="&quot;extend&quot;" style="edgeLabel;html=1;align=center;verticalAlign=middle;resizable=0;points=[];" vertex="1" connectable="0" parent="Dv9imvHfTyk6gD-PRM9J-65">
          <mxGeometry x="-0.0891" relative="1" as="geometry">
            <mxPoint as="offset" />
          </mxGeometry>
        </mxCell>
        <mxCell id="Dv9imvHfTyk6gD-PRM9J-72" value="" style="shape=ellipse;container=1;horizontal=1;horizontalStack=0;resizeParent=1;resizeParentMax=0;resizeLast=0;html=1;dashed=0;collapsible=0;" vertex="1" parent="1">
          <mxGeometry x="337" y="207" width="120" height="45" as="geometry" />
        </mxCell>
        <mxCell id="Dv9imvHfTyk6gD-PRM9J-73" value="choisir event&amp;nbsp;" style="html=1;strokeColor=none;fillColor=none;align=center;verticalAlign=middle;rotatable=0;whiteSpace=wrap;" vertex="1" parent="Dv9imvHfTyk6gD-PRM9J-72">
          <mxGeometry y="16.871071428571426" width="120" height="11.25" as="geometry" />
        </mxCell>
        <mxCell id="Dv9imvHfTyk6gD-PRM9J-74" value="" style="endArrow=classic;html=1;rounded=0;dashed=1;dashPattern=8 8;exitX=0.672;exitY=-0.018;exitDx=0;exitDy=0;exitPerimeter=0;entryX=0.033;entryY=0.646;entryDx=0;entryDy=0;entryPerimeter=0;" edge="1" parent="1" source="Dv9imvHfTyk6gD-PRM9J-3" target="Dv9imvHfTyk6gD-PRM9J-72">
          <mxGeometry width="50" height="50" relative="1" as="geometry">
            <mxPoint x="378" y="283" as="sourcePoint" />
            <mxPoint x="546" y="266" as="targetPoint" />
          </mxGeometry>
        </mxCell>
        <mxCell id="Dv9imvHfTyk6gD-PRM9J-75" value="&quot;include&quot;" style="edgeLabel;html=1;align=center;verticalAlign=middle;resizable=0;points=[];" vertex="1" connectable="0" parent="Dv9imvHfTyk6gD-PRM9J-74">
          <mxGeometry x="-0.0891" relative="1" as="geometry">
            <mxPoint as="offset" />
          </mxGeometry>
        </mxCell>
        <mxCell id="Dv9imvHfTyk6gD-PRM9J-79" value="" style="shape=ellipse;container=1;horizontal=1;horizontalStack=0;resizeParent=1;resizeParentMax=0;resizeLast=0;html=1;dashed=0;collapsible=0;" vertex="1" parent="1">
          <mxGeometry x="387" y="466" width="120" height="37" as="geometry" />
        </mxCell>
        <mxCell id="Dv9imvHfTyk6gD-PRM9J-80" value="choisir groupe" style="html=1;strokeColor=none;fillColor=none;align=center;verticalAlign=middle;rotatable=0;whiteSpace=wrap;" vertex="1" parent="Dv9imvHfTyk6gD-PRM9J-79">
          <mxGeometry x="0.5" y="11.10088095238095" width="120" height="9.25" as="geometry" />
        </mxCell>
        <mxCell id="Dv9imvHfTyk6gD-PRM9J-81" value="" style="endArrow=classic;html=1;rounded=0;dashed=1;dashPattern=8 8;exitX=0.902;exitY=0.258;exitDx=0;exitDy=0;exitPerimeter=0;entryX=0;entryY=1;entryDx=0;entryDy=0;" edge="1" parent="1" source="Dv9imvHfTyk6gD-PRM9J-24" target="Dv9imvHfTyk6gD-PRM9J-80">
          <mxGeometry width="50" height="50" relative="1" as="geometry">
            <mxPoint x="254.0020000000001" y="484.7800000000001" as="sourcePoint" />
            <mxPoint x="523.66" y="505" as="targetPoint" />
          </mxGeometry>
        </mxCell>
        <mxCell id="Dv9imvHfTyk6gD-PRM9J-82" value="&quot;include&quot;" style="edgeLabel;html=1;align=center;verticalAlign=middle;resizable=0;points=[];" vertex="1" connectable="0" parent="Dv9imvHfTyk6gD-PRM9J-81">
          <mxGeometry x="-0.0891" relative="1" as="geometry">
            <mxPoint as="offset" />
          </mxGeometry>
        </mxCell>
        <mxCell id="Dv9imvHfTyk6gD-PRM9J-83" value="" style="shape=ellipse;container=1;horizontal=1;horizontalStack=0;resizeParent=1;resizeParentMax=0;resizeLast=0;html=1;dashed=0;collapsible=0;" vertex="1" parent="1">
          <mxGeometry x="392" y="639" width="120" height="33" as="geometry" />
        </mxCell>
        <mxCell id="Dv9imvHfTyk6gD-PRM9J-84" value="choisir tranche horaire" style="html=1;strokeColor=none;fillColor=none;align=center;verticalAlign=middle;rotatable=0;whiteSpace=wrap;" vertex="1" parent="Dv9imvHfTyk6gD-PRM9J-83">
          <mxGeometry x="0.5" y="9.900785714285712" width="120" height="8.25" as="geometry" />
        </mxCell>
        <mxCell id="Dv9imvHfTyk6gD-PRM9J-85" value="" style="endArrow=classic;html=1;rounded=0;dashed=1;dashPattern=8 8;exitX=0.912;exitY=0.19;exitDx=0;exitDy=0;exitPerimeter=0;entryX=0;entryY=1;entryDx=0;entryDy=0;" edge="1" parent="1" target="Dv9imvHfTyk6gD-PRM9J-84" source="Dv9imvHfTyk6gD-PRM9J-57">
          <mxGeometry width="50" height="50" relative="1" as="geometry">
            <mxPoint x="373" y="711" as="sourcePoint" />
            <mxPoint x="513.66" y="661" as="targetPoint" />
          </mxGeometry>
        </mxCell>
        <mxCell id="Dv9imvHfTyk6gD-PRM9J-86" value="&quot;include&quot;" style="edgeLabel;html=1;align=center;verticalAlign=middle;resizable=0;points=[];" vertex="1" connectable="0" parent="Dv9imvHfTyk6gD-PRM9J-85">
          <mxGeometry x="-0.0891" relative="1" as="geometry">
            <mxPoint as="offset" />
          </mxGeometry>
        </mxCell>
        <mxCell id="Dv9imvHfTyk6gD-PRM9J-87" value="" style="shape=ellipse;container=1;horizontal=1;horizontalStack=0;resizeParent=1;resizeParentMax=0;resizeLast=0;html=1;dashed=0;collapsible=0;" vertex="1" parent="1">
          <mxGeometry x="398" y="942" width="120" height="44" as="geometry" />
        </mxCell>
        <mxCell id="Dv9imvHfTyk6gD-PRM9J-88" value="choisir membre" style="html=1;strokeColor=none;fillColor=none;align=center;verticalAlign=middle;rotatable=0;whiteSpace=wrap;" vertex="1" parent="Dv9imvHfTyk6gD-PRM9J-87">
          <mxGeometry x="0.5" y="13.201047619047616" width="120" height="11" as="geometry" />
        </mxCell>
        <mxCell id="Dv9imvHfTyk6gD-PRM9J-89" value="" style="endArrow=classic;html=1;rounded=0;dashed=1;dashPattern=8 8;exitX=0.755;exitY=0.045;exitDx=0;exitDy=0;exitPerimeter=0;entryX=0;entryY=1;entryDx=0;entryDy=0;" edge="1" parent="1" target="Dv9imvHfTyk6gD-PRM9J-88" source="m7XsVHhVL0BLHQTgYPTq-122">
          <mxGeometry width="50" height="50" relative="1" as="geometry">
            <mxPoint x="334" y="1009.98" as="sourcePoint" />
            <mxPoint x="474.65999999999997" y="959.98" as="targetPoint" />
          </mxGeometry>
        </mxCell>
        <mxCell id="Dv9imvHfTyk6gD-PRM9J-90" value="&quot;include&quot;" style="edgeLabel;html=1;align=center;verticalAlign=middle;resizable=0;points=[];" vertex="1" connectable="0" parent="Dv9imvHfTyk6gD-PRM9J-89">
          <mxGeometry x="-0.0891" relative="1" as="geometry">
            <mxPoint as="offset" />
          </mxGeometry>
        </mxCell>
        <mxCell id="Dv9imvHfTyk6gD-PRM9J-93" value="" style="shape=ellipse;container=1;horizontal=1;horizontalStack=0;resizeParent=1;resizeParentMax=0;resizeLast=0;html=1;dashed=0;collapsible=0;" vertex="1" parent="1">
          <mxGeometry x="398" y="96" width="120" height="50" as="geometry" />
        </mxCell>
        <mxCell id="Dv9imvHfTyk6gD-PRM9J-94" value="login /logout" style="html=1;strokeColor=none;fillColor=none;align=center;verticalAlign=middle;rotatable=0;whiteSpace=wrap;" vertex="1" parent="Dv9imvHfTyk6gD-PRM9J-93">
          <mxGeometry y="18.75" width="120" height="12.5" as="geometry" />
        </mxCell>
        <mxCell id="Dv9imvHfTyk6gD-PRM9J-95" value="" style="endArrow=classic;html=1;rounded=0;dashed=1;dashPattern=8 8;exitX=1;exitY=0;exitDx=0;exitDy=0;entryX=0;entryY=0.5;entryDx=0;entryDy=0;" edge="1" parent="1" source="Dv9imvHfTyk6gD-PRM9J-30" target="Dv9imvHfTyk6gD-PRM9J-94">
          <mxGeometry width="50" height="50" relative="1" as="geometry">
            <mxPoint x="459" y="201" as="sourcePoint" />
            <mxPoint x="535" y="129" as="targetPoint" />
          </mxGeometry>
        </mxCell>
        <mxCell id="Dv9imvHfTyk6gD-PRM9J-96" value="&quot;include&quot;" style="edgeLabel;html=1;align=center;verticalAlign=middle;resizable=0;points=[];" vertex="1" connectable="0" parent="Dv9imvHfTyk6gD-PRM9J-95">
          <mxGeometry x="-0.0891" relative="1" as="geometry">
            <mxPoint as="offset" />
          </mxGeometry>
        </mxCell>
        <mxCell id="Dv9imvHfTyk6gD-PRM9J-97" value="Assistante&amp;nbsp;&lt;div&gt;sociale&lt;/div&gt;" style="shape=umlActor;verticalLabelPosition=bottom;verticalAlign=top;html=1;" vertex="1" parent="1">
          <mxGeometry x="78" y="393" width="26" height="60" as="geometry" />
        </mxCell>
        <mxCell id="Dv9imvHfTyk6gD-PRM9J-98" value="" style="triangle;whiteSpace=wrap;html=1;rotation=-90;" vertex="1" parent="1">
          <mxGeometry x="71" y="256" width="33" height="32" as="geometry" />
        </mxCell>
        <mxCell id="Dv9imvHfTyk6gD-PRM9J-99" value="" style="endArrow=none;html=1;rounded=0;entryX=0;entryY=0.5;entryDx=0;entryDy=0;" edge="1" parent="1" target="Dv9imvHfTyk6gD-PRM9J-98">
          <mxGeometry width="50" height="50" relative="1" as="geometry">
            <mxPoint x="90" y="388" as="sourcePoint" />
            <mxPoint x="359" y="365" as="targetPoint" />
          </mxGeometry>
        </mxCell>
        <mxCell id="Dv9imvHfTyk6gD-PRM9J-100" value="Administrateur" style="shape=umlActor;verticalLabelPosition=bottom;verticalAlign=top;html=1;" vertex="1" parent="1">
          <mxGeometry x="35.5" y="517" width="26" height="59.5" as="geometry" />
        </mxCell>
        <mxCell id="Dv9imvHfTyk6gD-PRM9J-101" value="" style="triangle;whiteSpace=wrap;html=1;rotation=-90;" vertex="1" parent="1">
          <mxGeometry x="32" y="259" width="33" height="32" as="geometry" />
        </mxCell>
        <mxCell id="Dv9imvHfTyk6gD-PRM9J-102" value="" style="endArrow=none;html=1;rounded=0;entryX=0;entryY=0.5;entryDx=0;entryDy=0;" edge="1" parent="1" target="Dv9imvHfTyk6gD-PRM9J-101">
          <mxGeometry width="50" height="50" relative="1" as="geometry">
            <mxPoint x="43" y="507" as="sourcePoint" />
            <mxPoint x="317" y="422.5" as="targetPoint" />
          </mxGeometry>
        </mxCell>
        <mxCell id="Dv9imvHfTyk6gD-PRM9J-104" value="" style="endArrow=classic;html=1;rounded=0;dashed=1;dashPattern=8 8;exitX=0.828;exitY=0.155;exitDx=0;exitDy=0;entryX=0;entryY=0.75;entryDx=0;entryDy=0;exitPerimeter=0;" edge="1" parent="1" source="Dv9imvHfTyk6gD-PRM9J-3" target="m7XsVHhVL0BLHQTgYPTq-20">
          <mxGeometry width="50" height="50" relative="1" as="geometry">
            <mxPoint x="258" y="292" as="sourcePoint" />
            <mxPoint x="426" y="275" as="targetPoint" />
            <Array as="points" />
          </mxGeometry>
        </mxCell>
        <mxCell id="Dv9imvHfTyk6gD-PRM9J-105" value="&quot;extend&quot;" style="edgeLabel;html=1;align=center;verticalAlign=middle;resizable=0;points=[];" vertex="1" connectable="0" parent="Dv9imvHfTyk6gD-PRM9J-104">
          <mxGeometry x="-0.0891" relative="1" as="geometry">
            <mxPoint as="offset" />
          </mxGeometry>
        </mxCell>
        <mxCell id="Dv9imvHfTyk6gD-PRM9J-106" value="" style="endArrow=classic;html=1;rounded=0;dashed=1;dashPattern=8 8;exitX=0.958;exitY=0.312;exitDx=0;exitDy=0;exitPerimeter=0;entryX=0;entryY=1;entryDx=0;entryDy=0;" edge="1" parent="1" source="Dv9imvHfTyk6gD-PRM9J-24" target="m7XsVHhVL0BLHQTgYPTq-82">
          <mxGeometry width="50" height="50" relative="1" as="geometry">
            <mxPoint x="379" y="448" as="sourcePoint" />
            <mxPoint x="547" y="431" as="targetPoint" />
            <Array as="points" />
          </mxGeometry>
        </mxCell>
        <mxCell id="Dv9imvHfTyk6gD-PRM9J-107" value="&quot;extend&quot;" style="edgeLabel;html=1;align=center;verticalAlign=middle;resizable=0;points=[];" vertex="1" connectable="0" parent="Dv9imvHfTyk6gD-PRM9J-106">
          <mxGeometry x="-0.0891" relative="1" as="geometry">
            <mxPoint as="offset" />
          </mxGeometry>
        </mxCell>
        <mxCell id="Dv9imvHfTyk6gD-PRM9J-108" value="" style="endArrow=classic;html=1;rounded=0;dashed=1;dashPattern=8 8;exitX=0.571;exitY=-0.019;exitDx=0;exitDy=0;exitPerimeter=0;" edge="1" parent="1" source="m7XsVHhVL0BLHQTgYPTq-122" target="m7XsVHhVL0BLHQTgYPTq-116">
          <mxGeometry width="50" height="50" relative="1" as="geometry">
            <mxPoint x="303" y="949" as="sourcePoint" />
            <mxPoint x="471" y="932" as="targetPoint" />
            <Array as="points">
              <mxPoint x="324" y="939" />
              <mxPoint x="331" y="920" />
            </Array>
          </mxGeometry>
        </mxCell>
        <mxCell id="Dv9imvHfTyk6gD-PRM9J-109" value="&quot;extend&quot;" style="edgeLabel;html=1;align=center;verticalAlign=middle;resizable=0;points=[];" vertex="1" connectable="0" parent="Dv9imvHfTyk6gD-PRM9J-108">
          <mxGeometry x="-0.0891" relative="1" as="geometry">
            <mxPoint as="offset" />
          </mxGeometry>
        </mxCell>
        <mxCell id="Dv9imvHfTyk6gD-PRM9J-120" value="gérer les notifications" style="ellipse;whiteSpace=wrap;html=1;" vertex="1" parent="1">
          <mxGeometry x="217" y="396" width="120" height="52" as="geometry" />
        </mxCell>
        <mxCell id="Dv9imvHfTyk6gD-PRM9J-122" value="" style="endArrow=none;html=1;rounded=0;entryX=0.058;entryY=0.269;entryDx=0;entryDy=0;entryPerimeter=0;" edge="1" parent="1" target="Dv9imvHfTyk6gD-PRM9J-120">
          <mxGeometry width="50" height="50" relative="1" as="geometry">
            <mxPoint x="141" y="277" as="sourcePoint" />
            <mxPoint x="343" y="517" as="targetPoint" />
          </mxGeometry>
        </mxCell>
        <mxCell id="Dv9imvHfTyk6gD-PRM9J-126" value="" style="shape=ellipse;container=1;horizontal=1;horizontalStack=0;resizeParent=1;resizeParentMax=0;resizeLast=0;html=1;dashed=0;collapsible=0;" vertex="1" parent="1">
          <mxGeometry x="410" y="410" width="120" height="38" as="geometry" />
        </mxCell>
        <mxCell id="Dv9imvHfTyk6gD-PRM9J-127" value="gérer impression - event" style="html=1;strokeColor=none;fillColor=none;align=center;verticalAlign=middle;rotatable=0;whiteSpace=wrap;" vertex="1" parent="Dv9imvHfTyk6gD-PRM9J-126">
          <mxGeometry y="14.25" width="120" height="9.5" as="geometry" />
        </mxCell>
        <mxCell id="Dv9imvHfTyk6gD-PRM9J-128" value="" style="endArrow=classic;html=1;rounded=0;dashed=1;dashPattern=8 8;entryX=0;entryY=0.25;entryDx=0;entryDy=0;exitX=0.836;exitY=0.909;exitDx=0;exitDy=0;exitPerimeter=0;" edge="1" parent="1" target="Dv9imvHfTyk6gD-PRM9J-127" source="Dv9imvHfTyk6gD-PRM9J-3">
          <mxGeometry width="50" height="50" relative="1" as="geometry">
            <mxPoint x="207" y="362" as="sourcePoint" />
            <mxPoint x="424" y="471" as="targetPoint" />
          </mxGeometry>
        </mxCell>
        <mxCell id="Dv9imvHfTyk6gD-PRM9J-129" value="&quot;extend&quot;" style="edgeLabel;html=1;align=center;verticalAlign=middle;resizable=0;points=[];" vertex="1" connectable="0" parent="Dv9imvHfTyk6gD-PRM9J-128">
          <mxGeometry x="-0.0891" relative="1" as="geometry">
            <mxPoint as="offset" />
          </mxGeometry>
        </mxCell>
      </root>
    </mxGraphModel>
  </diagram>
</mxfile>
